<?xml version="1.0" encoding="utf-8"?>
<!-- Generator: Adobe Illustrator 22.1.0, SVG Export Plug-In . SVG Version: 6.00 Build 0)  -->
<svg version="1.1" id="Layer_1" xmlns="http://www.w3.org/2000/svg" xmlns:xlink="http://www.w3.org/1999/xlink" x="0px" y="0px"
	 viewBox="0 0 100 100" style="enable-background:new 0 0 100 100;" xml:space="preserve">
<style type="text/css">
	.st0{enable-background:new    ;}
	.st1{fill:#8B001D;}
</style>
<title>Rượu Thương Hiệu Logo</title>
<g>
	<g class="st0">
		<path class="st1" d="M26,96h2v0.5h-2V96z"/>
	</g>
	<g class="st0">
		<path class="st1" d="M32.7,95.1v0.6l-0.8,0.1v-0.7c0-0.2-0.1-0.3-0.3-0.3s-0.3,0.1-0.3,0.3v0.3c0,0.3,0.1,0.5,0.6,0.6
			c0.8,0.3,0.9,0.8,0.9,1.3v0.2c0,0.7-0.4,1.1-1.1,1.1c-0.7,0-1.1-0.4-1.1-1.1V97l0.8-0.1v0.5c0,0.3,0.1,0.4,0.3,0.4
			c0.2,0,0.3-0.1,0.3-0.4v-0.1c0-0.3-0.1-0.5-0.6-0.7c-0.7-0.3-0.9-0.7-0.9-1.3v-0.4c0-0.7,0.4-1.1,1.1-1.1
			C32.3,94,32.7,94.4,32.7,95.1z"/>
	</g>
	<g class="st0">
		<path class="st1" d="M35.5,94h0.8v4.5h-0.8V94z"/>
	</g>
	<g class="st0">
		<path class="st1" d="M41.6,94v4.5h-0.8L39.9,96v2.5h-0.8V94H40l0.8,2.2V94H41.6z"/>
		<path class="st1" d="M46.5,95.1v0.3l-0.8,0v-0.2c0-0.3-0.1-0.5-0.3-0.5c-0.2,0-0.3,0.1-0.3,0.4v2.3c0,0.3,0.1,0.4,0.3,0.4
			c0.2,0,0.3-0.1,0.3-0.5V97l0.8,0v0.4c0,0.7-0.4,1.2-1.1,1.2c-0.7,0-1.1-0.4-1.1-1.2v-2.3c0-0.7,0.4-1.2,1.1-1.2
			C46.1,93.9,46.5,94.3,46.5,95.1z"/>
		<path class="st1" d="M49.9,96.2h1L50.8,97h-0.9v0.8h1.3v0.8h-2.1V94h2.1v0.8h-1.3V96.2z"/>
		<path class="st1" d="M59,95.1v0.4c0,0.5-0.1,0.7-0.6,1.4l-0.7,0.9H59v0.8h-2.3v-0.7l1-1.4c0.3-0.4,0.4-0.6,0.4-1v-0.4
			c0-0.3-0.1-0.4-0.3-0.4c-0.2,0-0.3,0.1-0.3,0.5v0.3l-0.8-0.1v-0.4c0-0.7,0.4-1.1,1.1-1.1C58.6,94,59,94.5,59,95.1z"/>
		<path class="st1" d="M63.7,95.2v2.2c0,0.7-0.4,1.2-1.2,1.2c-0.7,0-1.2-0.5-1.2-1.2v-2.2c0-0.7,0.4-1.2,1.2-1.2
			C63.3,94,63.7,94.4,63.7,95.2z M62.2,95.2v2.2c0,0.3,0.1,0.5,0.4,0.5c0.2,0,0.4-0.1,0.4-0.5v-2.2c0-0.3-0.1-0.5-0.4-0.5
			C62.3,94.7,62.2,94.9,62.2,95.2z"/>
		<path class="st1" d="M66.6,95.3H66v-0.6c0.6,0,0.6-0.2,0.8-0.6h0.6v4.5h-0.8V95.3z"/>
		<path class="st1" d="M70.4,95.3h-0.6v-0.6c0.6,0,0.6-0.2,0.8-0.6h0.6v4.5h-0.8V95.3z"/>
		<path class="st1" d="M73.8,96h2v0.5h-2V96z"/>
	</g>
</g>
<g>
	<polygon class="st1" points="18.8,18.2 18.5,18 18.2,18.3 17.6,18.9 17.4,19.3 17.7,19.5 24.8,24.9 25.3,24.3 	"/>
	<polygon class="st1" points="14.4,24.2 14,24 13.8,24.4 13.4,25.1 13.2,25.5 13.5,25.7 21.5,29.8 21.9,29.1 	"/>
	<polygon class="st1" points="88.5,25.1 88,24.4 87.8,24 87.5,24.2 80,29.1 80.4,29.8 88.3,25.7 88.7,25.5 	"/>
	<polygon class="st1" points="84.2,18.9 83.7,18.3 83.4,18 83.1,18.2 76.6,24.3 77.1,24.9 84.2,19.5 84.5,19.3 	"/>
	<path class="st1" d="M76.9,35C72,20.7,56.3,13,42,18c-8,2.8-14.3,9-17,17l-0.5-0.2c5-14.6,21-22.4,35.6-17.3
		c8.1,2.8,14.5,9.2,17.3,17.3L76.9,35z"/>
	<path class="st1" d="M50.9,71.9c-5.3,0-10.5-1.5-14.9-4.3l0.3-0.4c9,5.7,20.4,5.7,29.4,0l0.3,0.4C61.4,70.4,56.2,71.9,50.9,71.9z"
		/>
	<path class="st1" d="M10.6,35.1l-1.2-0.3C14.5,11.9,37.2-2.6,60.1,2.4C74,5.5,85.5,15.3,90.6,28.6l-1.2,0.5
		C83.3,13.3,67.9,2.7,50.9,2.7C31.7,2.7,14.7,16.3,10.6,35.1z"/>
	<path class="st1" d="M86.2,67.7l-1-0.7C72.4,85.9,46.8,90.9,27.8,78.2c-4.4-3-8.2-6.7-11.1-11.1l-1,0.7c1.5,2.2,3.2,4.3,5.1,6.2
		l-4.6,9.8h10.2l2.2-3.6c13.7,8.5,31.1,8.5,44.8,0l2.2,3.6h10.2L81.1,74C83,72,84.7,70,86.2,67.7z M25.6,82.5h-7.5l3.6-7.6
		c1.8,1.7,3.7,3.2,5.8,4.6L25.6,82.5z M83.8,82.5h-7.5l-1.9-3c2.1-1.4,4-2.9,5.8-4.6L83.8,82.5z"/>
	<path class="st1" d="M32,11l0.1,0.1c0,0.1,0.1,0.1,0.1,0.2c0,0.1,0,0.1,0,0.1l-0.8,0.5c0,0,0,0,0,0.1l3.6,5.6c0,0,0,0.1-0.1,0.1
		c0,0.1-0.1,0.1-0.2,0.1c-0.1,0-0.1,0.1-0.2,0.1c-0.1,0-0.1,0-0.1,0l-3.6-5.6h-0.1l-0.8,0.5c-0.1,0-0.2,0-0.2-0.2s-0.1-0.3-0.1-0.3
		l2.3-1.5C31.9,11,32,11,32,11z"/>
	<path class="st1" d="M39.4,15.4c-0.1,0-0.1,0.1-0.2,0.1c-0.1,0-0.1,0.1-0.2,0.1c-0.1,0-0.1,0-0.1,0l-1.4-3.1c0,0,0-0.1-0.1,0l0,0
		l-1,0.5c0,0,0,0,0,0.1l1.4,3c0,0,0,0.1-0.1,0.1c-0.1,0.1-0.1,0.1-0.2,0.1c-0.1,0-0.1,0.1-0.2,0.1c-0.1,0-0.1,0-0.1,0l-3-6.6
		c0,0,0,0,0-0.1c0.1-0.1,0.1-0.1,0.2-0.1c0.1,0,0.2-0.1,0.2-0.1c0.1,0,0.1,0,0.1,0l1.3,2.9c0,0,0,0.1,0.1,0l1-0.5c0,0,0.1-0.1,0-0.1
		l-1.3-2.9V8.8c0.2,0.1,0.2,0,0.3,0c0.2-0.1,0.3-0.1,0.3,0L39.4,15.4C39.5,15.4,39.5,15.4,39.4,15.4z"/>
	<path class="st1" d="M42.8,13.7c0,0.1,0.1,0.1,0.1,0.2c0,0.1,0,0.1,0,0.2c0,0,0,0.1-0.1,0.1l-1.7,0.6c-0.1,0-0.1,0-0.1,0L38.9,8
		V7.9l0,0l1.7-0.5h0.1c0,0,0.1,0.1,0.1,0.2s0,0.1,0,0.2s0,0.1,0,0.1l-1.2,0.4c0,0-0.1,0,0,0.1l0,0l0.8,2.5c0,0,0,0.1,0.1,0l1.1-0.3
		h0.1c0.1,0.1,0.1,0.3,0.1,0.4c0,0,0,0.1-0.1,0.1l-1,0.3c0,0-0.1,0.1,0,0.1l0.8,2.6c0,0,0,0.1,0.1,0.1l0,0L42.8,13.7L42.8,13.7z"/>
	<path class="st1" d="M48.3,5.9c0.2,0,0.5,0,0.7,0.1s0.3,0.3,0.3,0.6l0.2,2c0,0.1,0,0.2,0,0.2c0,0.1,0,0.2,0,0.2
		c0,0.1-0.1,0.1-0.1,0.2c0,0-0.1,0.1-0.2,0.1c0.1,0,0.2,0,0.3,0.1s0.1,0.2,0.1,0.4l0.1,1.1V11l0.1,1c0,0.3,0,0.6-0.2,0.7
		c-0.2,0.2-0.4,0.3-0.7,0.3l-1.5,0.1c0,0-0.1,0-0.1-0.1l-0.2-1.9V11l-0.4-5.2V5.7l0,0L48.3,5.9z M47.4,6.5
		C47.4,6.5,47.3,6.6,47.4,6.5l0.2,2.8c0,0,0,0.1,0.1,0h0.1c0.1,0,0.2,0,0.3,0h0.4c0.1,0,0.2-0.1,0.2-0.1c0-0.1,0.1-0.2,0.1-0.3
		l-0.2-2c0-0.1,0-0.2-0.1-0.2c-0.1-0.1-0.2-0.1-0.3-0.1L47.4,6.5z M48.9,10.1c0-0.1,0-0.2-0.1-0.2c-0.1-0.1-0.2-0.1-0.3-0.1
		l-0.8,0.1c0,0-0.1,0-0.1,0.1l0.2,2.7c0,0,0,0.1,0.1,0.1l0.8-0.1c0.1,0,0.2,0,0.3-0.1c0-0.1,0.1-0.2,0-0.3v-1.1L48.9,10.1z"/>
	<path class="st1" d="M52.9,5.8c0.2,0,0.4,0.1,0.5,0.1c0.1,0.1,0.1,0.2,0.1,0.3c0,0,0,0.1,0,0.3c0,0.2,0,0.5,0,0.8s0,0.7,0.1,1.1
		c0,0.4,0,0.8,0.1,1.3s0.1,0.8,0.1,1.3s0,0.8,0.1,1.1c0,0.3,0,0.6,0,0.8s0,0.3,0,0.3s0,0-0.1,0.1c-0.1,0-0.2,0-0.3,0s-0.2,0-0.2,0
		s0,0-0.1-0.1c0,0,0-0.1,0-0.2c0-0.1,0-0.3,0-0.5s0-0.3,0-0.5c0-0.1,0-0.2,0-0.3c0,0,0-0.1-0.1-0.1l-1-0.1c-0.1,0-0.1,0-0.1,0.1
		c0,0,0,0.1,0,0.2c0,0.1-0.1,0.3-0.1,0.5s-0.1,0.3-0.1,0.5c0,0.1,0,0.2,0,0.2s0,0-0.1,0.1c-0.1,0-0.2,0-0.3,0s-0.2,0-0.3,0
		c0,0,0,0,0-0.1c0,0,0-0.1,0-0.3s0.1-0.5,0.1-0.8c0.1-0.3,0.1-0.7,0.2-1.1c0.1-0.4,0.1-0.8,0.2-1.3c0.1-0.4,0.1-0.8,0.2-1.3
		C52,8,52,7.6,52.1,7.3s0.1-0.6,0.1-0.8s0.1-0.3,0.1-0.3c0-0.1,0.1-0.2,0.2-0.3C52.5,5.9,52.7,5.8,52.9,5.8z M53.1,11.1
		c0.1,0,0.1,0,0.1-0.1c0,0,0-0.1,0-0.3s0-0.4,0-0.6c0-0.3,0-0.6-0.1-0.9c0-0.3,0-0.6-0.1-0.9c0-0.3,0-0.6-0.1-0.8c0-0.3,0-0.4,0-0.6
		c0-0.1,0-0.1,0-0.1s0,0,0,0.1s-0.1,0.3-0.1,0.6c0,0.3-0.1,0.5-0.1,0.8c-0.1,0.3-0.1,0.6-0.2,0.9c-0.1,0.3-0.1,0.6-0.2,0.9
		c0,0.3-0.1,0.5-0.1,0.6s0,0.3,0,0.3c0,0.1,0,0.1,0.1,0.1H53.1z"/>
	<path class="st1" d="M58.7,9.8c0,0.1-0.1,0.2-0.2,0.3c-0.1,0.1-0.2,0.1-0.3,0.1c0.1,0,0.2,0.1,0.3,0.2c0.1,0.1,0.1,0.2,0.1,0.3
		L58,13.8c0,0.1-0.1,0.1-0.3,0.1c-0.1,0-0.2,0-0.2-0.1c-0.1,0-0.1-0.1-0.1-0.1l0.6-3.1v-0.1l-0.1-0.1L57,10.2h-0.1L56,13.5
		c0,0,0,0-0.1,0.1c-0.1,0-0.2,0-0.2,0c-0.1,0-0.2,0-0.2-0.1c-0.1,0-0.1-0.1-0.1-0.1l1.3-7c0,0,0-0.1,0.1-0.1l1.7,0.3
		c0.2,0,0.4,0.2,0.5,0.3c0.1,0.2,0.1,0.4,0.1,0.6L58.7,9.8z M57.7,9.9c0.1,0,0.3,0,0.3-0.2V9.6l0.4-2.2c0-0.1,0-0.2,0-0.2
		c-0.1-0.1-0.1-0.1-0.2-0.1l-0.8-0.2h-0.1l-0.5,2.7v0.1l0,0L57.7,9.9z"/>
	<path class="st1" d="M63.2,11.2c0,0.1-0.1,0.2-0.2,0.3c-0.1,0.1-0.2,0.1-0.4,0.1c0.1,0,0.2,0.1,0.3,0.2c0,0.1,0,0.2,0,0.3l-1,3
		c0,0.1-0.1,0.1-0.3,0c-0.1,0-0.2-0.1-0.2-0.1c-0.1,0-0.1-0.1-0.1-0.1l1-3v-0.1c0,0,0-0.1-0.1-0.1l-0.9-0.3h-0.1l-1.1,3.1
		c0,0,0,0-0.1,0s-0.2,0-0.2,0c-0.1,0-0.1-0.1-0.2-0.1l-0.1-0.1l2.3-6.8c0,0,0-0.1,0.1-0.1l0,0l1.6,0.5c0.2,0.1,0.4,0.2,0.4,0.4
		C64,8.6,64,8.8,63.9,9L63.2,11.2z M62.2,11.1c0.1,0.1,0.3,0,0.3-0.1c0,0,0,0,0-0.1l0.8-2.1c0-0.1,0-0.1,0-0.2
		c0-0.1-0.1-0.2-0.2-0.2l-0.8-0.3h-0.1l-0.9,2.7v0.1L62.2,11.1z"/>
	<path class="st1" d="M65.4,16.3c0,0.1,0,0.1-0.1,0.2c0,0.1-0.1,0.1-0.1,0.2h-0.1l-1.7-0.9c-0.1,0-0.1-0.1,0-0.1l3.1-6.4l0.1-0.1
		l0,0l1.6,0.8v0.1c0,0.1,0,0.1-0.1,0.2c0,0.1-0.1,0.1-0.1,0.2c0,0-0.1,0.1-0.1,0L67,10h-0.1l0,0l-1.2,2.4v0.1l1,0.5c0,0,0,0,0,0.1
		s0,0.2-0.1,0.2c0,0.1-0.1,0.1-0.1,0.2h-0.1l-1-0.5h-0.1l-1.2,2.5v0.1l0,0L65.4,16.3C65.4,16.2,65.4,16.2,65.4,16.3z"/>
	<path class="st1" d="M68.4,18.4c-0.1,0.1-0.2,0.2-0.2,0.2l-1.5-1c-0.1,0-0.1-0.1,0-0.1l3.9-6c0,0,0,0,0.1,0s0.2,0.1,0.2,0.1
		c0.1,0,0.1,0.1,0.2,0.2c0,0.1,0,0.1,0,0.1l-3.6,5.6v0.1l1,0.6C68.5,18.1,68.5,18.2,68.4,18.4z"/>
	<path class="st1" d="M36.1,71.5c0.1,0,0.1,0.1,0.2,0.1c0,0,0.1,0.1,0,0.1l-4.7,5.6h-0.1c-0.1,0-0.1-0.1-0.2-0.1s-0.1-0.1-0.2-0.1
		c0,0-0.1-0.1,0-0.1l0.9-2.1c0.1-0.3,0.2-0.5,0.3-0.8s0.2-0.5,0.3-0.7s0.2-0.4,0.2-0.5s0.1-0.2,0.1-0.2l0,0l0,0c0,0,0,0.1-0.1,0.2
		s-0.2,0.2-0.3,0.4c-0.1,0.2-0.3,0.4-0.5,0.6c-0.2,0.2-0.4,0.4-0.5,0.7c-0.4,0.5-0.9,1.1-1.5,1.8h-0.1c-0.1,0-0.1-0.1-0.2-0.1
		s-0.1-0.1-0.1-0.1c-0.1,0-0.1-0.1-0.1-0.1l2.8-6.7c0,0,0,0,0.1,0s0.1,0,0.2,0.1c0.1,0,0.1,0.1,0.2,0.1s0.1,0.1,0,0.1l-1.9,4.6
		c0,0.1,0,0.1,0.1,0c0.6-0.7,1.1-1.4,1.6-1.9c0.2-0.2,0.4-0.5,0.6-0.7c0.2-0.2,0.4-0.4,0.5-0.6s0.3-0.3,0.4-0.4s0.1-0.2,0.1-0.2
		s0.1,0,0.3,0.1c0.1,0.1,0.2,0.2,0.2,0.2s0,0.1-0.1,0.2s-0.1,0.3-0.2,0.5c-0.1,0.2-0.2,0.5-0.3,0.7c-0.1,0.3-0.2,0.6-0.4,0.8
		c-0.3,0.7-0.6,1.4-1,2.3v0.1c0,0,0,0,0.1,0c0.2-0.2,0.4-0.4,0.5-0.6l0.5-0.6c0.2-0.2,0.4-0.5,0.6-0.7c0.5-0.6,1-1.2,1.6-1.9h0.1
		C36,71.4,36,71.4,36.1,71.5z"/>
	<path class="st1" d="M35,79.1c-0.2-0.1-0.3-0.2-0.3-0.2l2.9-6.6c0,0,0,0,0.1,0c0.2,0,0.3,0.1,0.5,0.2c0,0,0.1,0.1,0,0.1l-2.9,6.6
		C35.3,79.2,35.2,79.2,35,79.1z"/>
	<path class="st1" d="M40,80.9c-0.1,0-0.2,0-0.2,0c-0.1,0-0.2-0.1-0.2-0.1s0-0.1-0.1-0.1c0,0,0-0.1,0-0.4c0-0.2,0-0.5,0-0.9
		s0-0.7,0-1.1s0-0.8,0-1.1c0-0.3,0-0.6,0-0.8c0-0.2,0-0.3,0-0.4l0,0l0,0l-1.4,4.2c0,0,0,0-0.1,0s-0.2,0-0.2,0
		c-0.1,0-0.2-0.1-0.2-0.1L37.5,80l2.2-6.8l0.1-0.1c0.1,0,0.2,0,0.2,0.1c0.2,0.1,0.3,0.1,0.3,0.2c0,0.8-0.1,1.6-0.1,2.3
		c0,0.3,0,0.6,0,0.8s0,0.5,0,0.7s0,0.4,0,0.5s0,0.1,0,0.2c0,0,0,0,0,0.1c0,0,0,0,0-0.1l1.3-4.2c0-0.1,0.1-0.1,0.3,0s0.3,0.1,0.3,0.2
		L40,80.9C40.1,80.9,40,80.9,40,80.9z"/>
	<path class="st1" d="M44.5,81.4c0,0.1,0,0.1,0,0.2s0,0.1-0.1,0.2c0,0,0,0-0.1,0l-1.8-0.4c-0.1,0-0.1,0-0.1-0.1l1.4-7
		c0,0,0-0.1,0.1-0.1l0,0l1.8,0.3c0,0,0.1,0,0.1,0.1s0,0.1,0,0.2s0,0.1-0.1,0.2c0,0.1-0.1,0.1-0.1,0.1l-1.2-0.2h-0.1l0,0l-0.5,2.6
		v0.1l1.1,0.2c0,0,0,0,0.1,0.1c0,0.1,0,0.2,0,0.2c0,0.1,0,0.2-0.1,0.2h-0.1l-1.1-0.2c-0.1,0-0.1,0-0.1,0.1l-0.5,2.7V81l0,0
		L44.5,81.4L44.5,81.4z"/>
	<path class="st1" d="M53.1,80.5c0.2,0.3,0.3,0.6,0.5,0.9c0.1,0.2,0.2,0.5,0.2,0.8c0,0,0,0.1-0.1,0.1s-0.2,0-0.2,0
		c-0.2,0-0.3,0-0.3-0.1s-0.1-0.3-0.1-0.4c-0.1-0.2-0.2-0.3-0.3-0.5c-0.1,0.2-0.2,0.4-0.3,0.6c-0.1,0.1-0.1,0.2-0.2,0.3
		c-0.2,0.1-0.4,0.2-0.6,0.2H51c-0.2,0-0.5,0-0.7-0.2c-0.2-0.1-0.2-0.4-0.3-0.7v-1.4c0-0.2,0-0.4,0.1-0.5c0.1-0.2,0.1-0.3,0.2-0.5
		c0.1-0.1,0.2-0.3,0.3-0.4s0.3-0.2,0.4-0.3c-0.1-0.2-0.3-0.5-0.4-0.7c-0.1-0.2-0.1-0.4-0.2-0.6V76l0,0c0-0.3,0.1-0.5,0.2-0.7
		c0.2-0.2,0.4-0.2,0.7-0.2H52c0.2,0,0.5,0,0.7,0.2c0.2,0.1,0.2,0.3,0.3,0.6l0,0V77c0,0.1,0,0.3-0.1,0.4s-0.2,0.3-0.3,0.4
		s-0.2,0.2-0.4,0.4c-0.1,0.1-0.3,0.2-0.4,0.4l0.4,0.6l0.4,0.7c0,0,0-0.1,0.1-0.2s0.1-0.1,0.1-0.2s0.1-0.1,0.1-0.2l0.1-0.2
		c0-0.1,0-0.1,0.1-0.1s0.2,0,0.2,0c0.1,0,0.2,0,0.3,0.1c0.1,0,0.1,0.1,0.1,0.2c-0.1,0.1-0.1,0.3-0.2,0.4l-0.2,0.4
		C53.2,80.2,53.1,80.4,53.1,80.5z M51.5,81.9c0.1,0,0.2-0.1,0.2-0.1c0.1-0.1,0.2-0.2,0.2-0.3c0.1-0.1,0.1-0.3,0.2-0.4
		c0.1-0.1,0.1-0.3,0.2-0.4c-0.2-0.3-0.3-0.5-0.5-0.8s-0.4-0.6-0.5-0.8c-0.2,0.2-0.4,0.4-0.5,0.6s-0.2,0.4-0.2,0.6v1.4
		c0,0.1,0,0.2,0.1,0.2C50.8,82,50.9,82,51,82L51.5,81.9z M51,76.9c0,0.2,0.1,0.3,0.1,0.5c0.1,0.2,0.2,0.4,0.3,0.6
		c0.2-0.2,0.4-0.3,0.6-0.5c0.2-0.2,0.2-0.4,0.2-0.6V76c0-0.1,0-0.2-0.1-0.3c0-0.1-0.1-0.1-0.2-0.1h-0.7c-0.1,0-0.2,0-0.2,0.1
		s-0.1,0.2-0.1,0.3L51,76.9z"/>
	<path class="st1" d="M59.1,74c0.2-0.1,0.5-0.1,0.7,0s0.3,0.3,0.4,0.6l1.4,5.4c0.1,0.3,0.1,0.5-0.1,0.7c-0.1,0.2-0.4,0.3-0.6,0.4
		l-1.4,0.4c0,0-0.1,0-0.1-0.1l0,0l-1.7-6.9v-0.1l0,0L59.1,74z M59.6,74.8c0-0.1-0.1-0.2-0.1-0.2c-0.1-0.1-0.2-0.1-0.3,0l-0.8,0.2
		c0,0-0.1,0,0,0.1l0,0l1.5,5.9c0,0.1,0,0.1,0.1,0.1l0.8-0.2c0.1,0,0.2-0.1,0.2-0.2s0-0.2,0-0.3L59.6,74.8z"/>
	<path class="st1" d="M64.5,80.1c-0.2,0.1-0.3,0.1-0.3,0l-2.5-6.8v-0.1c0.1-0.1,0.1-0.1,0.2-0.1c0.1,0,0.2-0.1,0.3-0.1s0.1,0,0.1,0
		l2.5,6.7C64.8,79.9,64.7,80,64.5,80.1z"/>
	<path class="st1" d="M69.4,77.9C69.3,78,69.3,78,69.2,78s-0.1,0.1-0.2,0.1h-0.1l-0.3-0.3L68,77.1c-0.2-0.3-0.5-0.5-0.7-0.8
		s-0.5-0.6-0.7-0.8c-0.2-0.2-0.4-0.5-0.6-0.6c-0.2-0.2-0.2-0.3-0.2-0.3l0,0l0,0l2,4v0.1c-0.1,0.1-0.1,0.1-0.2,0.1s-0.1,0.1-0.2,0.1
		s-0.1,0-0.1,0l-3.2-6.4v-0.1c0.1-0.1,0.1-0.1,0.2-0.1c0.2-0.1,0.3-0.1,0.4-0.1c0.6,0.6,1.1,1.2,1.5,1.7l0.6,0.6
		c0.2,0.2,0.3,0.4,0.5,0.5c0.1,0.2,0.3,0.3,0.4,0.4s0.1,0.2,0.1,0.2l0,0c0,0,0,0,0-0.1l-1.9-3.9c0-0.1,0.1-0.1,0.2-0.2
		c0.2-0.1,0.3-0.1,0.4,0l3.2,6.4C69.4,77.8,69.4,77.8,69.4,77.9z"/>
	<path class="st1" d="M73,75.1c0.1,0,0.1,0.1,0.1,0.2s0.1,0.1,0.1,0.2v0.1l-1.6,1h-0.1l-3.9-6v-0.1l0,0l1.5-1h0.1
		c0.1,0,0.1,0.1,0.1,0.1c0,0.1,0.1,0.1,0.1,0.2s0,0.1,0,0.1l-1,0.7c0,0,0,0,0,0.1l0,0l1.4,2.2c0,0,0,0,0.1,0l0.9-0.6h0.1
		c0.1,0.1,0.2,0.2,0.2,0.4v0.1l-0.9,0.6v0.1l0,0l1.5,2.3h0.1l0,0L73,75.1C72.9,75.1,73,75.1,73,75.1z"/>
	<path class="st1" d="M26.3,17.4c0,0.6-0.5,1.1-1.1,1.1s-1.1-0.5-1.1-1.1s0.5-1.1,1.1-1.1C25.8,16.2,26.3,16.7,26.3,17.4L26.3,17.4z
		"/>
	<path class="st1" d="M75.7,17.4c0,0.6-0.5,1.1-1.1,1.1s-1.1-0.5-1.1-1.1s0.5-1.1,1.1-1.1l0,0C75.2,16.2,75.7,16.7,75.7,17.4
		L75.7,17.4z"/>
	<path class="st1" d="M26.3,68c0,0.6-0.5,1.1-1.1,1.1s-1.1-0.5-1.1-1.1s0.5-1.1,1.1-1.1S26.3,67.4,26.3,68L26.3,68z"/>
	<path class="st1" d="M75.7,68c0,0.6-0.5,1.1-1.1,1.1s-1.1-0.5-1.1-1.1s0.5-1.1,1.1-1.1S75.7,67.4,75.7,68L75.7,68z"/>
	<path class="st1" d="M31.7,42.8h0.7l-0.2,0.4H30v13.3c0,2.2-2.2,2.1-2.2,0V43.2h-2.7v13.4c0,2.9,1.4,4.5,3.9,4.5s3.9-1.7,3.9-4.5
		V44.5l1-1.9v-2.1h-2.3v2.3H31.7z"/>
	<path class="st1" d="M39.8,44h0.7l-0.2,0.6c-0.6-0.5-1.4-0.7-2.2-0.7c-2.3,0-3.7,1.7-3.7,4.4v7.9c0,2.7,1.4,4.4,3.7,4.4
		s3.7-1.7,3.7-4.4v-7.9c0-1.2-0.3-2.2-0.8-2.9l0.9-1.6v-2h-2.1C39.8,41.8,39.8,44,39.8,44z M39.2,56.1c0,1.1-0.4,1.6-1.1,1.6
		c-0.7,0-1.1-0.5-1.1-1.6v-7.9c0-1.1,0.4-1.6,1.1-1.6s1.1,0.5,1.1,1.6V56.1z"/>
	<polygon class="st1" points="3.8,42 3.3,45.6 6.7,45.6 6.7,62.4 10,62.4 10,45.6 13.4,45.6 12.9,42 	"/>
	<polygon class="st1" points="20.4,51.8 17.8,51.8 17.8,42.7 14.8,42.7 14.8,61.7 17.8,61.7 17.8,55.1 20.4,55.1 20.4,61.7 
		23.4,61.7 23.4,42.7 20.4,42.7 	"/>
	<polygon class="st1" points="48.7,52 46.2,44.1 43.4,44.1 43.4,60.3 45.9,60.3 45.9,51.3 48.7,60.3 51.2,60.3 51.2,44.1 48.7,44.1 
			"/>
	<path class="st1" d="M56,43.9c-2.3,0-3.6,1.5-3.6,4.2v8.3c0,2.6,1.3,4.2,3.6,4.2s3.6-1.5,3.6-4.2V52H56l0.4,2.8h0.7v1.3
		c0,1.2-0.3,1.7-1,1.7s-1-0.4-1-1.4v-8.3c0-1,0.3-1.4,1.1-1.4c0.7,0,1.1,0.5,1.1,1.7v2.2l2.5-0.1v-2.3C59.7,45.4,58.3,43.9,56,43.9z
		"/>
	<polygon class="st1" points="70.4,51.9 68.2,51.9 68.2,44.1 65.6,44.1 65.6,60.3 68.2,60.3 68.2,54.7 70.4,54.7 70.4,60.3 73,60.3 
		73,44.1 70.4,44.1 	"/>
	<rect x="74.4" y="43.5" class="st1" width="2.8" height="17.4"/>
	<polygon class="st1" points="82.8,40.1 83.8,41.6 85.6,41.6 84,38.6 81.5,38.6 79.9,41.6 81.7,41.6 	"/>
	<polygon class="st1" points="78.9,61.3 86.3,61.3 86.3,58.2 81.8,58.2 81.8,55 85,55 85.5,51.9 81.8,51.9 81.8,46.1 86.3,46.1 
		86.3,42.9 78.9,42.9 	"/>
	<path class="st1" d="M93.6,42.2v14.9c0,2.4-2.5,2.4-2.5,0V42.2H88v15c0,3.2,1.6,5.1,4.3,5.1c2.8,0,4.4-1.9,4.4-5.1v-15H93.6z"/>
	<rect x="81.3" y="62.8" class="st1" width="3.1" height="3.5"/>
	<path class="st1" d="M37.2,33.8v4.4h-2.4v-13h3.1c2.3,0,3.5,1.3,3.5,3.5v1.5c0,1.4-0.5,2.4-1.4,3l1.8,5h-2.5l-1.5-4.4H37.2z
		 M37.9,31.6c0.8,0,1.2-0.4,1.2-1.4V29c0-1-0.4-1.4-1.2-1.4h-0.6v4.1L37.9,31.6z"/>
	<path class="st1" d="M46.4,38.4c-2.1,0-3.3-1.2-3.3-3.3v-9.8h2.3v9.8c0,1.6,1.9,1.6,1.9,0v-9.8h2.4v9.8
		C49.7,37.2,48.5,38.4,46.4,38.4z"/>
	<path class="st1" d="M58.3,28.4v6.4c0,2.2-1.3,3.5-3.4,3.5c-2.1,0-3.4-1.3-3.4-3.5v-6.3c0-2.2,1.3-3.5,3.4-3.5
		C57,24.9,58.3,26.3,58.3,28.4z M53.9,28.5v6.3c0,0.9,0.4,1.3,1,1.3s1-0.4,1-1.3v-6.3c0-0.9-0.4-1.3-1-1.3
		C54.2,27.1,53.9,27.6,53.9,28.5L53.9,28.5z"/>
	<path class="st1" d="M63.3,38.4c-2.1,0-3.3-1.2-3.3-3.3v-9.8h2.3v9.8c0,1.6,1.9,1.6,1.9,0v-9.8h2.4v9.8
		C66.6,37.2,65.4,38.4,63.3,38.4z"/>
	<path class="st1" d="M48.7,26.2l0.6-1.4h-0.6v-1.7h1.9v1.6l-1,1.5H48.7z"/>
	<path class="st1" d="M56.7,26.2l0.6-1.4h-0.6v-1.7h1.9v1.6l-1,1.5H56.7z"/>
	<path class="st1" d="M53.6,39.1h2.3v2.3h-2.3V39.1z"/>
</g>
</svg>
